<svg width="247" height="118" viewBox="0 0 247 118" fill="none" xmlns="http://www.w3.org/2000/svg">
<path d="M67.1384 116.219C53.2317 111.042 50.9971 98.0187 51.319 90.2192C-23.681 85.2192 -14.9502 1.21929 78.2445 1.21929C171.439 1.21929 245.319 -5.28075 245.319 52.4963C245.319 110.273 84.5219 92.821 78.2445 92.821C71.9672 92.821 64.7241 102.778 67.1384 116.219Z" fill="white" stroke="#D9D9D9" stroke-width="2"/>
<path d="M61.4674 30.5005C64.4206 30.5161 66.5456 31.9536 66.5456 34.1411C66.5456 36.2114 64.7018 37.5786 62.0612 37.7583V40.6724H67.8581V41.7036H55.1393V40.6724H60.8581V37.7583C58.2331 37.5708 56.3893 36.2036 56.3893 34.1411C56.3893 31.9536 58.5221 30.5161 61.4674 30.5005ZM57.5768 34.1411C57.569 35.7427 59.2174 36.7817 61.4674 36.7974C63.7174 36.7817 65.3581 35.7427 65.3581 34.1411C65.3581 32.5708 63.7174 31.5083 61.4674 31.5161C59.2174 31.5083 57.569 32.5708 57.5768 34.1411ZM80.1706 32.938V33.9536H70.6862V29.8286H71.8893V32.938H80.1706ZM68.9518 36.3286V35.3286H81.6706V36.3286H68.9518ZM70.5456 38.5474V37.5786H80.0299V40.8286H71.8112V42.313H80.5299V43.2974H70.5768V39.8911H78.8268V38.5474H70.5456ZM94.0143 36.1099V37.1099H89.7174V40.7036H95.5143V41.7349H82.7956V40.7036H88.5143V37.1099H84.4206V30.7349H93.8737V31.7349H85.6549V36.1099H94.0143ZM111.889 35.9224V36.9536H107.577V40.6567H113.358V41.6724H100.639V40.6567H106.358V36.9536H102.202V30.7817H103.452V35.9224H111.889ZM121.061 30.4536V34.3442H116.28V36.5005C118.889 36.5083 120.241 36.4536 121.874 36.1567L121.999 37.1724C120.272 37.4536 118.858 37.5005 116.046 37.5005H115.061V33.4067H119.842V31.438H115.03V30.4536H121.061ZM116.624 39.8911V38.8911H125.983V43.5161H124.749V39.8911H116.624ZM121.983 35.563V34.5474H124.749V32.6724H121.983V31.6724H124.749V29.6099H125.983V38.1411H124.749V35.563H121.983ZM139.155 29.6099V34.188H141.249V35.2192H139.155V40.0161H137.936V29.6099H139.155ZM128.327 32.313V31.313H131.858V29.6099H133.077V31.313H136.608V32.313H128.327ZM129.124 35.6724C129.116 34.0942 130.46 33.0786 132.467 33.0786C134.452 33.0786 135.796 34.0942 135.811 35.6724C135.796 37.2349 134.452 38.2427 132.467 38.2349C130.46 38.2427 129.116 37.2349 129.124 35.6724ZM130.296 35.6724C130.288 36.6489 131.155 37.2817 132.467 37.2661C133.764 37.2817 134.639 36.6489 134.655 35.6724C134.639 34.6802 133.764 34.0396 132.467 34.0474C131.155 34.0396 130.288 34.6802 130.296 35.6724ZM130.467 43.188V39.188H131.671V42.1567H139.796V43.188H130.467ZM157.014 29.5942V33.2192H159.092V34.2505H157.014V37.8911H155.78V29.5942H157.014ZM146.78 36.7505V30.6567H152.952V31.6724H147.983V35.7505C150.796 35.7349 152.413 35.6489 154.28 35.2661L154.405 36.2817C152.46 36.6724 150.796 36.7505 147.858 36.7505H146.78ZM147.936 40.7974C147.944 39.1333 149.71 38.1646 152.546 38.1567C155.382 38.1646 157.124 39.1333 157.124 40.7974C157.124 42.4849 155.382 43.4536 152.546 43.4536C149.71 43.4536 147.944 42.4849 147.936 40.7974ZM149.139 40.7974C149.147 41.8286 150.452 42.4614 152.546 42.4692C154.624 42.4614 155.944 41.8286 155.936 40.7974C155.944 39.7739 154.624 39.1567 152.546 39.1724C150.452 39.1567 149.147 39.7739 149.139 40.7974ZM171.436 29.6099V39.7974H170.217V29.6099H171.436ZM160.108 36.8286C162.21 36.0083 163.639 33.9771 163.639 31.7817V30.3911H164.889V31.7817C164.874 33.8989 166.319 35.7974 168.389 36.5474L167.749 37.5317C166.139 36.9146 164.889 35.6646 164.272 34.063C163.671 35.7661 162.405 37.1333 160.78 37.7817L160.108 36.8286ZM162.467 43.188V38.8599H163.686V42.1567H171.874V43.188H162.467ZM185.249 29.5942V43.5161H184.014V29.5942H185.249ZM174.311 35.5161C174.319 32.563 175.788 30.6802 177.858 30.6724C179.921 30.6802 181.413 32.563 181.405 35.5161C181.413 38.4771 179.921 40.3521 177.858 40.3442C175.788 40.3521 174.319 38.4771 174.311 35.5161ZM175.499 35.5161C175.499 37.7739 176.467 39.2583 177.858 39.2505C179.257 39.2583 180.217 37.7739 180.217 35.5161C180.217 33.2583 179.257 31.7739 177.858 31.7661C176.467 31.7739 175.499 33.2583 175.499 35.5161ZM84.6003 59.8599C84.5846 62.0864 86.194 64.5396 88.2096 65.5005L87.5065 66.4692C85.944 65.7036 84.6237 64.063 83.9987 62.1802C83.3581 64.2192 81.9674 66.0161 80.4128 66.813L79.6628 65.8442C81.6628 64.8677 83.3815 62.2271 83.3971 59.8599V58.0474H80.1628V57.0317H87.7253V58.0474H84.6003V59.8599ZM89.4284 69.4849V55.5942H90.6471V61.2192H92.9753V62.2661H90.6471V69.4849H89.4284ZM104.585 55.6099V59.0942H106.694V60.1255H104.585V64.0005H103.366V55.6099H104.585ZM94.319 57.4849V56.4692H100.616V60.2192H95.5534V62.1567C98.0221 62.1646 99.8112 62.0708 101.975 61.7036L102.1 62.7349C99.8737 63.1021 98.0143 63.188 95.4284 63.188H94.3503V59.2505H99.4128V57.4849H94.319ZM95.5221 66.9536C95.5143 65.3599 97.2643 64.4146 100.132 64.4224C102.967 64.4146 104.71 65.3599 104.71 66.9536C104.71 68.5396 102.967 69.4536 100.132 69.4536C97.2643 69.4536 95.5143 68.5396 95.5221 66.9536ZM96.7253 66.9536C96.7096 67.9224 97.9987 68.5083 100.132 68.5005C102.233 68.5083 103.514 67.9224 103.522 66.9536C103.514 65.9771 102.233 65.3911 100.132 65.3911C97.9987 65.3911 96.7096 65.9771 96.7253 66.9536ZM114.475 57.6411C114.483 60.0239 117.202 62.1411 119.616 62.5942L119.053 63.6255C116.952 63.1411 114.749 61.6489 113.85 59.6099C112.944 61.6489 110.749 63.1333 108.647 63.6255L108.085 62.5942C110.491 62.1333 113.186 60.0317 113.194 57.6411V56.5786H114.475V57.6411ZM107.553 67.5942V66.5786H120.272V67.5942H107.553ZM132.882 55.5942V69.5161H131.663V61.9692H128.96V60.938H131.663V55.5942H132.882ZM121.866 57.9067V56.8911H128.116V61.7505H123.132V65.1255C125.53 65.1255 127.264 65.0474 129.288 64.6724L129.382 65.7036C127.296 66.0786 125.491 66.1646 122.975 66.1724H121.913V60.7349H126.928V57.9067H121.866ZM146.71 55.6099V69.5005H145.46V66.0474H142.257V65.1099H145.46V55.6099H146.71ZM135.147 62.9224C137.796 62.9146 141.319 62.9067 144.382 62.4692L144.46 63.3911C143.085 63.6255 141.655 63.7583 140.272 63.8442V69.063H139.038V63.9067C137.71 63.9536 136.436 63.9692 135.319 63.9692L135.147 62.9224ZM136.21 59.0317C136.202 57.3989 137.639 56.2974 139.725 56.2974C141.788 56.2974 143.233 57.3989 143.225 59.0317C143.233 60.6802 141.788 61.7427 139.725 61.7505C137.639 61.7427 136.202 60.6802 136.21 59.0317ZM137.366 59.0317C137.358 60.0864 138.327 60.8052 139.725 60.7974C141.092 60.8052 142.061 60.0864 142.069 59.0317C142.061 57.9849 141.092 57.2583 139.725 57.2505C138.327 57.2583 137.358 57.9849 137.366 59.0317ZM161.757 66.6724V67.7036H149.038V66.6724H152.194V62.9302C151.007 62.313 150.288 61.313 150.288 60.0474C150.288 57.8989 152.397 56.4849 155.366 56.4692C158.335 56.4849 160.444 57.8989 160.444 60.0474C160.444 61.2896 159.749 62.2739 158.6 62.8911V66.6724H161.757ZM151.475 60.0474C151.467 61.6021 153.085 62.6411 155.366 62.6411C157.624 62.6411 159.257 61.6021 159.257 60.0474C159.257 58.4927 157.624 57.4692 155.366 57.4849C153.085 57.4692 151.467 58.4927 151.475 60.0474ZM153.397 66.6724H157.366V63.3677C156.764 63.5239 156.092 63.6099 155.366 63.6099C154.655 63.6099 153.991 63.5317 153.397 63.3755V66.6724Z" fill="#2B2B2B"/>
</svg>
