<svg width="139" height="205" viewBox="0 0 139 205" fill="none" xmlns="http://www.w3.org/2000/svg">
<path d="M46.9419 112.516C46.9419 112.516 5.91396 177.531 40.1784 191.297C74.4428 205.062 108.547 211.151 121.675 180.086C134.803 149.021 91.2613 100.314 91.2613 100.314L46.9419 112.516Z" fill="#9AD4D8" stroke="#231815" stroke-width="3" stroke-linecap="round" stroke-linejoin="round"/>
<path d="M130.563 85.1373C130.563 85.1373 137.198 68.1043 137.198 63.1104C137.198 58.1164 128.549 57.2395 126.811 54.304C125.074 51.3686 132.578 38.7425 123.636 30.5158C114.694 22.2966 105.176 24.9348 97.1026 21.1224C89.0294 17.3027 89.0294 3.21256 70.8538 2.03838C52.6855 0.864206 39.6997 27.0008 33.3565 29.6389C27.0133 32.2771 18.0715 30.5233 6.24639 45.7876C-5.57872 61.0518 9.70633 73.0983 11.7283 79.8535C13.7502 86.6087 4.51642 84.8475 5.38506 103.932C6.25369 123.016 18.3635 125.958 27.8819 126.248C37.4004 126.546 34.5171 130.945 39.999 131.829C45.4809 132.714 67.1092 121.552 67.1092 121.552L130.563 85.1373Z" fill="#9AD4D8" stroke="#231815" stroke-width="3" stroke-linecap="round" stroke-linejoin="round"/>
<path d="M110.373 56.9497C110.373 56.9497 121.373 43.4467 124.505 44.9107C127.636 46.3747 124.505 70.4601 124.505 70.4601L110.373 56.9497Z" fill="white" stroke="#231815" stroke-width="3" stroke-linecap="round" stroke-linejoin="round"/>
<path d="M110.431 51.0119C110.431 51.0119 134.87 70.0737 134.541 93.141C134.213 116.208 97.6792 152.385 42.583 124.784" fill="#9AD4D8"/>
<path d="M110.431 51.0119C110.431 51.0119 134.87 70.0737 134.541 93.141C134.213 116.208 97.6792 152.385 42.583 124.784" stroke="#231815" stroke-width="3" stroke-linecap="round" stroke-linejoin="round"/>
<path d="M72.0071 41.0909C75.1167 41.0909 76.9123 52.253 76.9123 54.8911C76.9123 57.5293 67.3938 63.9947 65.3719 63.9947C63.3499 63.9947 59.0287 57.2395 59.0287 55.1884C59.0287 53.1373 68.5472 41.0909 72.0071 41.0909Z" fill="white" stroke="#231815" stroke-width="3" stroke-linecap="round" stroke-linejoin="round"/>
<path d="M89.3871 80.6338C90.4433 80.6338 91.2995 79.6456 91.2995 78.4266C91.2995 77.2077 90.4433 76.2195 89.3871 76.2195C88.3308 76.2195 87.4746 77.2077 87.4746 78.4266C87.4746 79.6456 88.3308 80.6338 89.3871 80.6338Z" fill="#231815"/>
<path d="M123.518 79.2554C124.274 79.1335 124.749 78.1441 124.579 77.0455C124.408 75.9469 123.656 75.1551 122.9 75.277C122.143 75.3988 121.668 76.3882 121.839 77.4868C122.01 78.5854 122.761 79.3772 123.518 79.2554Z" fill="#231815"/>
<path d="M108.804 91.4912C108.804 91.4912 118.935 83.0788 122.534 84.0226C126.132 84.9738 122.804 100.179 117.067 100.037C111.336 99.9037 108.132 93.9288 108.804 91.4838V91.4912Z" fill="white" stroke="#231815" stroke-width="3" stroke-linecap="round" stroke-linejoin="round"/>
</svg>
